# xmcd
#
# Track frame offsets:
# 150
# 15625
# 35236
# 56120
# 74012
# 95545
# 114926
# 139409
# 157761
# 178948
# 194125
# 215343
# 234564
#
# Disc length: 3339 seconds
#
#
# Revision: 0
# Processed by: cddbd v1.5.1PL0 Copyright (c) Steve Scherf et al.
# Submitted via: FreeRIP 2.60 
#
DISCID=c50d090d
DTITLE=Kenny Chesney-Be As You Are - 
DYEAR=2005
DGENRE=Country
TTITLE0=Old Blue Chair
TTITLE1=Be As You Are
TTITLE2=Guitars And Tiki Bars
TTITLE3=Island Boy
TTITLE4=Somewhere In The Sun
TTITLE5=Boston
TTITLE6=There's Something Sexy About The Rain
TTITLE7=French Kissing Life
TTITLE8=Key Lime Pie
TTITLE9=Sherry's Living In Paradise
TTITLE10=Magic
TTITLE11=Soul Of A Sailor
TTITLE12=Old Blue Chair (Ocean Mix)
EXTD=Country..Kinda
EXTT0=
EXTT1=
EXTT2=
EXTT3=
EXTT4=
EXTT5=
EXTT6=
EXTT7=
EXTT8=
EXTT9=
EXTT10=
EXTT11=
EXTT12=
PLAYORDER=
